<?xml version="1.0" encoding="utf-8"?>
<!-- Generator: Adobe Illustrator 23.1.0, SVG Export Plug-In . SVG Version: 6.00 Build 0)  -->
<svg version="1.1" id="Capa_1" xmlns="http://www.w3.org/2000/svg" xmlns:xlink="http://www.w3.org/1999/xlink" x="0px" y="0px"
	 viewBox="0 0 100 100" style="enable-background:new 0 0 100 100;" xml:space="preserve">
<style type="text/css">
	.st0{fill:#FFFFFF;}
	.st1{fill:#46FFDB;}
	.st2{fill:#9E005D;}
	.st3{fill:#FCEE21;}
	.st4{fill:#8CC63F;}
</style>
<g>
	<polygon class="st0" points="13.52,27.87 3.4,18.22 17.21,16.05 23.26,3.44 29.59,15.91 43.45,17.76 33.55,27.64 36.07,41.4 
		23.62,35.03 11.32,41.68 	"/>
	<path d="M23.27,4.57l5.75,11.33l0.24,0.47l0.52,0.07l12.6,1.68l-9,8.97l-0.37,0.37l0.09,0.52l2.29,12.5L24.08,34.7l-0.47-0.24
		l-0.46,0.25l-11.18,6.04l2-12.55l0.08-0.52l-0.38-0.36l-9.2-8.77l12.56-1.97l0.52-0.08l0.23-0.47L23.27,4.57 M23.25,2.31
		L16.88,15.6L2.32,17.88l10.67,10.16L10.66,42.6l12.96-7.01l13.12,6.71l-2.66-14.49L44.52,17.4l-14.61-1.95L23.25,2.31L23.25,2.31z"
		/>
</g>
<g>
	<path class="st1" d="M74.32,22.83l1.51,12.16l0.06,0.52l0.47,0.24l10.87,5.65l-11.09,5.19l-0.48,0.22l-0.09,0.52l-2.01,12.08
		l-8.37-8.95l-0.36-0.38l-0.52,0.08l-12.11,1.82l5.92-10.72l0.25-0.46l-0.23-0.47l-5.47-10.96l12.03,2.32l0.52,0.1l0.37-0.37
		L74.32,22.83 M75.07,20.7L64.89,30.71l-14.02-2.7l6.38,12.77l-6.9,12.49l14.12-2.12l9.75,10.43l2.35-14.08l12.93-6.05l-12.67-6.58
		L75.07,20.7L75.07,20.7z"/>
</g>
<g>
	<path class="st2" d="M25.02,58.26l7.61,4.81l0.44,0.28l0.48-0.21l8.28-3.54l-2.23,8.72l-0.13,0.51l0.35,0.4l5.92,6.78l-8.98,0.58
		l-0.52,0.03l-0.27,0.45l-4.62,7.73l-3.32-8.36l-0.19-0.49l-0.51-0.12l-8.78-2l6.93-5.75l0.4-0.34l-0.05-0.52L25.02,58.26
		 M23.85,56.33l0.99,10.98l-8.49,7.04L27.1,76.8l4.07,10.25l5.66-9.47l11-0.71l-7.25-8.3l2.73-10.68l-10.14,4.33L23.85,56.33
		L23.85,56.33z"/>
</g>
<g>
	<path class="st3" d="M82.18,4.75l0.39,0.53l0.31,0.42l0.53-0.02l0.66-0.02l-0.38,0.53l-0.3,0.43l0.18,0.49l0.23,0.62l-0.63-0.2
		l-0.5-0.16L82.25,7.7l-0.52,0.4l-0.01-0.66l-0.01-0.53l-0.44-0.29l-0.54-0.37l0.62-0.21l0.5-0.17L82,5.38L82.18,4.75 M81.78,2.53
		l-0.74,2.58L78.5,5.96l2.23,1.5l0.03,2.68l2.11-1.65l2.56,0.8L84.5,6.77l1.55-2.19l-2.68,0.1L81.78,2.53L81.78,2.53z"/>
</g>
<g>
	<path class="st4" d="M91.36,57.01l0.85,4.94l0.09,0.52l0.48,0.22l4.55,2.09l-4.43,2.34l-0.46,0.25l-0.06,0.52l-0.58,4.97
		l-3.59-3.49L87.82,69l-0.52,0.1l-4.91,0.98l2.21-4.5l0.23-0.47l-0.26-0.46l-2.45-4.37L87.08,61l0.52,0.07l0.36-0.39L91.36,57.01
		 M92,54.84l-4.77,5.17l-6.96-1l3.44,6.14l-3.1,6.31l6.9-1.38l5.05,4.9L93.37,68l6.22-3.28l-6.39-2.94L92,54.84L92,54.84z"/>
</g>
</svg>
